<svg xmlns="http://www.w3.org/2000/svg" viewBox="0 0 24 24" fill="#e11d48" stroke="none">
  <path d="M12 23c-3.866 0-7-3.358-7-7.5 0-2.123.807-4.062 2.129-5.522.22-.243.479-.458.761-.64.107-.068.217-.13.329-.185.08-.04.162-.076.245-.108l.115-.043c.122-.044.247-.08.374-.108.168-.037.34-.056.514-.056.522 0 1.017.156 1.429.437.183.125.35.274.494.443.06.07.116.143.168.22.093.137.174.283.24.437l.038.095c.05.13.09.265.12.404.04.185.06.377.06.573 0 .75-.333 1.422-.857 1.886l-.018.016c-.024.02-.048.04-.073.059a2.5 2.5 0 01-.348.229 2.48 2.48 0 01-.607.247c.304-.063.59-.178.846-.337.128-.08.248-.17.36-.27.055-.049.108-.1.158-.154a2.996 2.996 0 00.717-1.95c0-.262-.034-.516-.097-.759a3.482 3.482 0 00-.188-.527C13.25 6.5 15 4 15 4s4 3.5 4 9.5c0 5-4 9.5-7 9.5z"/>
</svg>
